
8.86k → 6.2k 69.97%
<svg xmlns="http://www.w3.org/2000/svg" aria-hidden="true" style="position:absolute;width:0;height:0;overflow:hidden">
  <defs>
    <symbol id="icon-logo" viewBox="0 0 36 32">
      <path fill="#02bc6b" d="M2.79 30.32A2.78 2.78 0 0 1 0 27.57v-9.64h7.01v-.01h4.21a2.1 2.1 0 0 0 2-2.07 2.1 2.1 0 0 0-2.08-2.07H0v-2.76a2.78 2.78 0 0 1 2.78-2.75h8.36a7.3 7.3 0 0 1 5.4 2.23 7.19 7.19 0 0 1 2.26 5.35c0 2.07-.73 3.86-2.2 5.32s-3.26 2.23-5.35 2.26H5.57v4.14a2.78 2.78 0 0 1-2.79 2.75z" style="fill:var(--color1, #02bc6b)"/>
      <path fill="#02897a" d="M22.3 5.07a14.58 14.58 0 0 1 4.64 10.83c0 4.12-1.49 7.8-4.52 10.77l-4.3-4a9.04 9.04 0 0 0 2.8-6.77c0-2.71-.94-4.93-2.87-6.79l4.26-4.04z" style="fill:var(--color2, #02897a)"/>
      <path fill="#035b81" d="M28.9 0a21.84 21.84 0 0 1 6.66 16.05c0 6.13-2.14 11.56-6.5 15.95l-4.15-4.01a16.26 16.26 0 0 0 4.83-11.94c0-4.75-1.64-8.72-4.96-12L28.9 0z" style="fill:var(--color3, #035b81)"/>
      <path fill="#028e37" d="M0 23.45h5.57v4.12c0 1.51-1.25 2.75-2.79 2.75S0 29.08 0 27.57v-4.12z" style="fill:var(--color4, #028e37)"/>
    </symbol>
    <symbol id="icon-tv-hero" viewBox="0 0 28 32">
      <path fill="#02897a" d="M26.09 12.9a3.56 3.56 0 0 1 0 6.2L4.93 30.86a3.56 3.56 0 0 1-5.28-3.11V4.26a3.56 3.56 0 0 1 5.28-3.1L26.1 12.88z" style="fill:var(--color2, #02897a)"/>
    </symbol>
    <symbol id="icon-first-click-tests" viewBox="0 0 21 32">
      <path fill="#fff" d="M19.04 18.07 1.84.86a1 1 0 0 0-.76-.32A1.08 1.08 0 0 0 0 1.62v25.27a1.08 1.08 0 0 0 1.08 1.08c.28 0 .55-.12.75-.32l5.25-5.25 3.2 7.6c.24.54.86.8 1.42.57l2.97-1.26c.54-.23.81-.86.57-1.41l-3.37-8h6.42c.43 0 .82-.27.99-.67.17-.39.08-.86-.24-1.16z" style="fill:var(--color5, #fff)"/>
    </symbol>
    <symbol id="icon-design-surveys" viewBox="0 0 41 32">
      <path fill="#fff" d="m21.67 12.9 2.68 1.24 3.98-1.18v-2.78c0-4.71-3.98-8.49-8.74-8.49-4.73 0-8.73 3.76-8.73 8.43v12.66a2.08 2.08 0 1 1-4.17 0v-5.35H0v5.43a8.75 8.75 0 0 0 8.76 8.75c4.8 0 8.76-3.85 8.76-8.63V10.49c0-1.14.94-2.08 2.08-2.08s2.08.94 2.08 2.08v2.4zm10.82 4.53v5.61c0 1.14-.94 2.06-2.08 2.06s-2.08-.92-2.08-2.06v-5.5l-3.98 1.17-2.68-1.24v5.47c0 4.8 3.94 8.67 8.76 8.67a8.75 8.75 0 0 0 8.75-8.75v-5.43h-6.7z" style="fill:var(--color5, #fff)"/>
    </symbol>
    <symbol id="icon-preference-tests" viewBox="0 0 34 32">
      <path fill="#fff" d="M17.07 30.17c.3 0 .6-.11.83-.34L29.77 18.4c.17-.17 4.36-4 4.36-8.57 0-5.58-3.4-8.91-9.1-8.91-3.33 0-6.46 2.63-7.96 4.11C15.57 3.54 12.44.92 9.1.92 3.4.92 0 4.25 0 9.83c0 4.57 4.2 8.4 4.34 8.53l11.89 11.47c.23.23.53.34.84.34z" style="fill:var(--color5, #fff)"/>
    </symbol>
    <symbol id="icon-five-second-tests" viewBox="0 0 26 32">
      <path fill="#fff" d="M23.66 2.69h1.62c.3 0 .54-.24.54-.54V1.07c0-.3-.24-.53-.54-.53H.54c-.3 0-.54.23-.54.53v1.08c0 .3.24.54.54.54h1.61c0 6.22 2.98 10.72 6.27 12.9-3.3 2.2-6.27 6.7-6.27 12.91H.54c-.3 0-.54.24-.54.54v1.08c0 .3.24.54.54.54h24.74c.3 0 .54-.24.54-.54v-1.08c0-.3-.24-.53-.54-.53h-1.62c0-6.22-2.97-10.73-6.26-12.91 3.29-2.19 6.26-6.7 6.26-12.91zm-2.15 0c0 2.45-.55 4.62-1.43 6.45H5.73A14.9 14.9 0 0 1 4.3 2.7h17.21zm-.96 20.44H5.27c1.24-3.25 3.48-5.55 5.71-6.46h3.87c2.24.91 4.47 3.21 5.71 6.46z" style="fill:var(--color5, #fff)"/>
    </symbol>
    <symbol id="icon-star-full" viewBox="0 0 36 32">
      <path fill="#f3cd03" d="M33.81 11.49a1.6 1.6 0 0 0-1.4-1.09l-9.27-.72-4-8.74a1.6 1.6 0 0 0-1.5-.94 1.65 1.65 0 0 0-1.48.94l-4 8.74-9.27.72a1.63 1.63 0 0 0-1.4 1.05 1.58 1.58 0 0 0 .4 1.7l6.84 6.56-2.42 10.32a1.57 1.57 0 0 0 .66 1.68 1.64 1.64 0 0 0 1.83.01l8.84-5.8 8.85 5.8a1.65 1.65 0 0 0 2.43-.8c.11-.32.12-.65.03-.96L26 19.72l7.37-6.53c.48-.43.66-1.1.45-1.7z" style="fill:var(--color6, #f3cd03)"/>
    </symbol>
    <symbol id="icon-star-half" viewBox="0 0 34 32">
      <path fill="#f3cd03" d="M8.62 19.72 6.2 30.04a1.57 1.57 0 0 0 .66 1.68 1.63 1.63 0 0 0 1.83 0l8.84-5.8 8.85 5.8a1.65 1.65 0 0 0 2.43-.8c.11-.31.12-.65.03-.96l-2.97-10.24 7.37-6.53a1.6 1.6 0 0 0-.96-2.78l-9.26-.73-4-8.73a1.6 1.6 0 0 0-1.5-.95 1.64 1.64 0 0 0-1.48.95l-4 8.73-9.27.73a1.63 1.63 0 0 0-1.4 1.05 1.58 1.58 0 0 0 .4 1.69l6.84 6.57zm4.64-6.92a1.64 1.64 0 0 0 1.35-.94l2.92-6.37 2.92 6.37a1.6 1.6 0 0 0 1.36.94l6.45.5-5.32 4.7a1.6 1.6 0 0 0-.47 1.64l2.03 7.01-6.06-3.98a1.63 1.63 0 0 0-1.8 0l-6.35 4.16 1.7-7.27a1.58 1.58 0 0 0-.44-1.5L6.6 13.31l6.65-.52z" style="fill:var(--color6, #f3cd03)"/>
    </symbol>
    <symbol id="icon-facebook" viewBox="0 0 32 32">
      <path fill="none" stroke="#02897a" stroke-linecap="round" stroke-linejoin="round" stroke-width="2.67" d="M24 2.67h-4a6.66 6.66 0 0 0-6.67 6.66v4h-4v5.34h4v10.66h5.34V18.67h4L24 13.33h-5.33v-4A1.33 1.33 0 0 1 20 8h4V2.67z" style="stroke:var(--color2, #02897a)"/>
    </symbol>
    <symbol id="icon-instagram" viewBox="0 0 32 32">
      <path fill="none" stroke="#02897a" stroke-linecap="round" stroke-linejoin="round" stroke-width="2.67" d="M22.67 2.67H9.33a6.67 6.67 0 0 0-6.66 6.66v13.34a6.67 6.67 0 0 0 6.66 6.66h13.34a6.67 6.67 0 0 0 6.66-6.66V9.33a6.67 6.67 0 0 0-6.66-6.66z" style="stroke:var(--color2, #02897a)"/>
      <path fill="none" stroke="#02897a" stroke-linecap="round" stroke-linejoin="round" stroke-width="2.67" d="M21.33 15.16a5.33 5.33 0 1 1-10.54 1.56 5.33 5.33 0 0 1 10.54-1.56zm2-6.49h.02" style="stroke:var(--color2, #02897a)"/>
    </symbol>
    <symbol id="icon-twitter" viewBox="0 0 32 32">
      <path fill="none" stroke="#02897a" stroke-linecap="round" stroke-linejoin="round" stroke-width="2.67" d="M30.67 4.01c-1.28.9-2.7 1.6-4.19 2.04a5.98 5.98 0 0 0-10.48 4v1.34A14.21 14.21 0 0 1 4 5.35s-5.33 12 6.67 17.33a15.52 15.52 0 0 1-9.34 2.67C13.33 32 28 25.35 28 10c0-.37-.04-.74-.1-1.1A10.29 10.29 0 0 0 30.66 4v0z" style="stroke:var(--color2, #02897a)"/>
    </symbol>
    <symbol id="icon-phone" viewBox="0 0 21 32">
      <path fill="#02897a" d="M18.42 0H2.91A2.95 2.95 0 0 0 0 3v26c0 1.66 1.3 3 2.9 3h15.52a2.95 2.95 0 0 0 2.91-3V3c0-1.66-1.3-3-2.9-3zm-4.84 27.94c0 .61-.44 1.06-.97 1.06H8.67c-.48 0-.91-.45-.91-1s.43-1 .97-1h3.88c.53 0 .97.45.97.94zM17.45 24H3.88V4h13.57v20z" style="fill:var(--color2, #02897a)"/>
    </symbol>
    <symbol id="icon-checkmark2" viewBox="0 0 32 32">
      <path d="M12.42 28.68-.01 16.44l6.17-6.07 6.26 6.17L25.85 3.32 32 9.4 12.42 28.68zM3.37 16.44l9.05 8.9L28.62 9.4l-2.77-2.74-13.43 13.22-6.26-6.17-2.79 2.74z"/>
    </symbol>
  </defs>
</svg>